REM DIRINDEX 1\3,1\2\4,1\2\5,1\2\6
REM DIRNAME folder01,folder02,folder03,folder04,folder05,folder06
TITLE ""
FILE "118.mp3" MP3
  TRACK 01 AUDIO
    TITLE "4:cjc137_4875"
    INDEX 01 00:00:00
  TRACK 02 AUDIO
    TITLE "0:"
    INDEX 01 00:01:19
  TRACK 03 AUDIO
    TITLE "6:cjc137_4876"
    INDEX 01 00:01:26
  TRACK 04 AUDIO
    TITLE "0:"
    INDEX 01 00:02:24
  TRACK 05 AUDIO
    TITLE "5:cjc137_4877"
    INDEX 01 00:02:28
  TRACK 06 AUDIO
    TITLE "0:"
    INDEX 01 00:03:51
  TRACK 07 AUDIO
    TITLE "4:cjc137_4878"
    INDEX 01 00:04:58
  TRACK 08 AUDIO
    TITLE "0:"
    INDEX 01 00:05:63
  TRACK 09 AUDIO
    TITLE "6:cjc137_4879"
    INDEX 01 00:05:73
  TRACK 10 AUDIO
    TITLE "0:"
    INDEX 01 00:06:57
  TRACK 11 AUDIO
    TITLE "5:cjc137_4880"
    INDEX 01 00:06:69
  TRACK 12 AUDIO
    TITLE "0:"
    INDEX 01 00:07:72
  TRACK 13 AUDIO
    TITLE "4:cjc137_4881"
    INDEX 01 00:09:10
  TRACK 14 AUDIO
    TITLE "0:"
    INDEX 01 00:10:43
  TRACK 15 AUDIO
    TITLE "6:cjc137_4882"
    INDEX 01 00:10:47
  TRACK 16 AUDIO
    TITLE "0:"
    INDEX 01 00:11:66
  TRACK 17 AUDIO
    TITLE "5:cjc137_4883"
    INDEX 01 00:11:72
  TRACK 18 AUDIO
    TITLE "0:"
    INDEX 01 00:13:28
  TRACK 19 AUDIO
    TITLE "4:cjc137_4884"
    INDEX 01 00:14:33
  TRACK 20 AUDIO
    TITLE "0:"
    INDEX 01 00:15:58
  TRACK 21 AUDIO
    TITLE "6:cjc137_4885"
    INDEX 01 00:15:64
  TRACK 22 AUDIO
    TITLE "0:"
    INDEX 01 00:17:10
  TRACK 23 AUDIO
    TITLE "5:cjc137_4886"
    INDEX 01 00:17:14
  TRACK 24 AUDIO
    TITLE "0:"
    INDEX 01 00:18:39
  TRACK 25 AUDIO
    TITLE "4:cjc137_4887"
    INDEX 01 00:19:46
  TRACK 26 AUDIO
    TITLE "0:"
    INDEX 01 00:20:61
  TRACK 27 AUDIO
    TITLE "6:cjc137_4888"
    INDEX 01 00:20:67
  TRACK 28 AUDIO
    TITLE "0:"
    INDEX 01 00:21:58
  TRACK 29 AUDIO
    TITLE "5:cjc137_4889"
    INDEX 01 00:21:62
  TRACK 30 AUDIO
    TITLE "0:"
    INDEX 01 00:23:01
  TRACK 31 AUDIO
    TITLE "4:cjc137_4890"
    INDEX 01 00:24:10
  TRACK 32 AUDIO
    TITLE "0:"
    INDEX 01 00:25:39
  TRACK 33 AUDIO
    TITLE "6:cjc137_4891"
    INDEX 01 00:25:46
  TRACK 34 AUDIO
    TITLE "0:"
    INDEX 01 00:27:00
  TRACK 35 AUDIO
    TITLE "5:cjc137_4892"
    INDEX 01 00:27:08
  TRACK 36 AUDIO
    TITLE "0:"
    INDEX 01 00:28:39
  TRACK 37 AUDIO
    TITLE "4:cjc137_4893"
    INDEX 01 00:29:48
  TRACK 38 AUDIO
    TITLE "0:"
    INDEX 01 00:30:61
  TRACK 39 AUDIO
    TITLE "6:cjc137_4894"
    INDEX 01 00:30:67
  TRACK 40 AUDIO
    TITLE "0:"
    INDEX 01 00:32:13
  TRACK 41 AUDIO
    TITLE "5:cjc137_4895"
    INDEX 01 00:32:19
  TRACK 42 AUDIO
    TITLE "0:"
    INDEX 01 00:33:30
  TRACK 43 AUDIO
    TITLE "4:cjc137_4896"
    INDEX 01 00:34:42
  TRACK 44 AUDIO
    TITLE "0:"
    INDEX 01 00:35:61
  TRACK 45 AUDIO
    TITLE "6:cjc137_4897"
    INDEX 01 00:35:64
  TRACK 46 AUDIO
    TITLE "0:"
    INDEX 01 00:37:07
  TRACK 47 AUDIO
    TITLE "5:cjc137_4898"
    INDEX 01 00:37:12
  TRACK 48 AUDIO
    TITLE "0:"
    INDEX 01 00:38:31
  TRACK 49 AUDIO
    TITLE "4:cjc137_4899"
    INDEX 01 00:39:37
  TRACK 50 AUDIO
    TITLE "0:"
    INDEX 01 00:40:52
  TRACK 51 AUDIO
    TITLE "6:cjc137_4900"
    INDEX 01 00:40:62
  TRACK 52 AUDIO
    TITLE "0:"
    INDEX 01 00:42:12
  TRACK 53 AUDIO
    TITLE "5:cjc137_4901"
    INDEX 01 00:42:18
  TRACK 54 AUDIO
    TITLE "0:"
    INDEX 01 00:43:31
  TRACK 55 AUDIO
    TITLE "4:cjc137_4902"
    INDEX 01 00:44:40
  TRACK 56 AUDIO
    TITLE "0:"
    INDEX 01 00:45:55
  TRACK 57 AUDIO
    TITLE "6:cjc137_4903"
    INDEX 01 00:45:63
  TRACK 58 AUDIO
    TITLE "0:"
    INDEX 01 00:47:15
  TRACK 59 AUDIO
    TITLE "5:cjc137_4904"
    INDEX 01 00:47:21
  TRACK 60 AUDIO
    TITLE "0:"
    INDEX 01 00:48:36
  TRACK 61 AUDIO
    TITLE "4:cjc137_4905"
    INDEX 01 00:49:47
  TRACK 62 AUDIO
    TITLE "0:"
    INDEX 01 00:50:72
  TRACK 63 AUDIO
    TITLE "6:cjc137_4906"
    INDEX 01 00:51:05
  TRACK 64 AUDIO
    TITLE "0:"
    INDEX 01 00:52:24
  TRACK 65 AUDIO
    TITLE "5:cjc137_4907"
    INDEX 01 00:52:36
  TRACK 66 AUDIO
    TITLE "0:"
    INDEX 01 00:53:60
  TRACK 67 AUDIO
    TITLE "4:cjc137_4908"
    INDEX 01 00:54:72
  TRACK 68 AUDIO
    TITLE "0:"
    INDEX 01 00:56:12
  TRACK 69 AUDIO
    TITLE "6:cjc137_4909"
    INDEX 01 00:56:18
  TRACK 70 AUDIO
    TITLE "0:"
    INDEX 01 00:57:15
  TRACK 71 AUDIO
    TITLE "5:cjc137_4910"
    INDEX 01 00:57:25
  TRACK 72 AUDIO
    TITLE "0:"
    INDEX 01 00:58:42
  TRACK 73 AUDIO
    TITLE "4:cjc137_4911"
    INDEX 01 00:59:49
  TRACK 74 AUDIO
    TITLE "0:"
    INDEX 01 01:00:51
  TRACK 75 AUDIO
    TITLE "6:cjc137_4912"
    INDEX 01 01:00:60
  TRACK 76 AUDIO
    TITLE "0:"
    INDEX 01 01:01:72
  TRACK 77 AUDIO
    TITLE "5:cjc137_4913"
    INDEX 01 01:02:03
  TRACK 78 AUDIO
    TITLE "0:"
    INDEX 01 01:03:04
  TRACK 79 AUDIO
    TITLE "4:cjc137_4914"
    INDEX 01 01:04:21
  TRACK 80 AUDIO
    TITLE "0:"
    INDEX 01 01:05:28
  TRACK 81 AUDIO
    TITLE "6:cjc137_4915"
    INDEX 01 01:05:34
  TRACK 82 AUDIO
    TITLE "0:"
    INDEX 01 01:06:36
  TRACK 83 AUDIO
    TITLE "5:cjc137_4916"
    INDEX 01 01:06:42
  TRACK 84 AUDIO
    TITLE "0:"
    INDEX 01 01:07:51
